<svg xmlns="http://www.w3.org/2000/svg" viewBox="0 0 1057.02 244.16">
    <defs>
        <style>
            .cls-1 {
                fill: #e73e4a;
            }
        </style>
    </defs>
    <path class="cls-1"
        d="M317.75,118.37c-26.14,0-45.73,9.71-58.33,28.88v-101H234.06V285.42h24.42V259.71c12.8,19.58,32.71,29.49,59.27,29.49,24.08,0,43.22-8.39,56.89-24.95s20.5-36.76,20.5-60.31c0-23.75-6.9-44.15-20.5-60.62S341.83,118.37,317.75,118.37Zm-4.09,23.15c16.88,0,30.53,6,40.58,17.74s15.23,26.87,15.23,44.68c0,17.61-5.13,32.54-15.23,44.37h0c-10,11.77-23.7,17.74-40.58,17.74s-30.37-6-40.1-17.72-14.77-26.77-14.77-44.39c0-18,5-33.11,14.77-44.85S296.78,141.52,313.66,141.52Z"
        transform="translate(-41.24 -45.15)" />
    <path class="cls-1"
        d="M487.31,118.37c-23.64,0-43.14,8.43-57.95,25.06s-22.27,36.83-22.27,60.2c0,23.78,7.28,44.18,21.62,60.66s34.23,24.91,58.92,24.91c18.72,0,34.92-5.13,48.14-15.26a77,77,0,0,0,27.29-39.65l.59-1.93H537.26l-.35,1A47.43,47.43,0,0,1,518.58,257c-8.73,6-19,9-30.64,9-15.87,0-29-5.25-38.91-15.6-9.66-10-15.2-23.07-16.47-38.71h133l.37-10c0-23.57-7.23-43.56-21.48-59.42S510.94,118.37,487.31,118.37Zm-54,72.11c2.06-13.95,7.87-25.63,17.27-34.74,9.74-9.43,22.1-14.22,36.74-14.22,15.06,0,27.48,4.63,36.9,13.75,9.11,8.81,14.57,20.65,16.23,35.21Z"
        transform="translate(-41.24 -45.15)" />
    <path class="cls-1"
        d="M651,118.37c-14.08,0-25.8,3-34.84,9.07a62.27,62.27,0,0,0-16.56,15.48V122.15H575.15V285.42h25.36V188.51c0-15,4.4-26.85,13.07-35.12s20-12.5,33.6-12.5S671,144.8,677.7,152.5s10.18,19,10.18,33.5v99.42h25.36V181.59c0-18.78-5.49-34.17-16.31-45.74S670.62,118.37,651,118.37Z"
        transform="translate(-41.24 -45.15)" />
    <path class="cls-1"
        d="M804.79,118.37c-23.64,0-43.14,8.43-58,25.06s-22.26,36.83-22.26,60.2c0,23.78,7.27,44.19,21.62,60.66s34.22,24.91,58.91,24.91c18.73,0,34.92-5.13,48.15-15.26a77.08,77.08,0,0,0,27.29-39.65l.58-1.93H854.74l-.36,1A47.35,47.35,0,0,1,836.06,257c-8.73,6-19,9-30.64,9-15.88,0-29-5.25-38.91-15.6-9.66-10-15.2-23.07-16.48-38.71h133l.36-10c0-23.57-7.22-43.56-21.48-59.42S828.42,118.37,804.79,118.37Zm-54,72.11c2.07-13.95,7.87-25.63,17.27-34.74,9.74-9.43,22.11-14.22,36.75-14.22,15.05,0,27.47,4.63,36.9,13.75,9.11,8.82,14.56,20.65,16.22,35.21Z"
        transform="translate(-41.24 -45.15)" />
    <path class="cls-1"
        d="M925.54,96.25c0-9.4,2.12-16.24,6.32-20.34s10.68-6.18,19.26-6.18a46.37,46.37,0,0,1,8.52.6l1.8.35V47l-12.21-.71c-14.82,0-26.82,4.33-35.68,12.86S900.18,80.48,900.18,97.2v25H869V144h31.17V285.42h25.36V144h36.21V122.15H925.54Z"
        transform="translate(-41.24 -45.15)" />
    <rect class="cls-1" x="931.08" y="77" width="25.36" height="163.28" />
    <path class="cls-1"
        d="M1098.25,144V122.15h-36.84V76.49h-25.36v45.66h-30.54V144h30.54v96.75c0,30,14.49,45.26,43.07,45.26,7.65,0,13.51-.54,17.4-1.62l1.1-.31v-23l-15.75,1.75c-13.77,0-20.46-7.78-20.46-23.69V144Z"
        transform="translate(-41.24 -45.15)" />
    <path class="cls-1"
        d="M205.06,80.34a47.32,47.32,0,0,0-10.48-16.23,51.53,51.53,0,0,0-13.37-9.63,75.68,75.68,0,0,0-18-6.35,122.15,122.15,0,0,0-20.17-2.72c-2.92-.18-6-.26-9.51-.26H47.76a5.58,5.58,0,0,0-.57.08l-1.07.19-.25.93a4.65,4.65,0,0,0-.13,1.4V48q0,27.76,0,55.54c0,1,0,1.92.07,2.88,0,.53,0,1,0,1.58a56.67,56.67,0,0,0,.86,7.81,83.83,83.83,0,0,0,3.68,14.57,57.21,57.21,0,0,0,5.84,12.3,42.06,42.06,0,0,0,4.61,6,74.17,74.17,0,0,0,7.44,6.79,27,27,0,0,0,2.8,2,57.68,57.68,0,0,0,6.27,3.35,37.09,37.09,0,0,0,5.91,2c1.1.29,2.23.52,3.31.74l1.34.28a20.38,20.38,0,0,0,4.29.41c.62,0,1.23,0,1.79,0a2.22,2.22,0,0,0,.75-.19l1-.32.07-1.15a3.62,3.62,0,0,0,0-.56,8.36,8.36,0,0,1,.2-2.18,9.94,9.94,0,0,1,2.92-5.36c.28-.28.57-.54.88-.8A19.76,19.76,0,0,1,104,151a13,13,0,0,1,3.67-1.23,24.06,24.06,0,0,1,2.93-.31,25.61,25.61,0,0,1,3.75.07,46.08,46.08,0,0,1,6.85,1.29l4.07,1.09c1.34.37,2.69.74,4,1.09,2.33.62,4.22,1.1,5.94,1.51,1.07.26,2.15.47,3.24.69l2.33.48c1.45.3,2.9.6,4.35.87a61.13,61.13,0,0,0,6.17.9c.67.06,1.34.15,2,.24l1.16.15,4,.47c1.47.16,2.93.17,4.34.19l1.06,0a41.93,41.93,0,0,0,10.25-1l.26,0a37.65,37.65,0,0,0,5.92-1.7c.68-.27,1.34-.57,2-.86l1.32-.57a22.25,22.25,0,0,0,3.66-1.94l.58-.39c1-.69,2.1-1.4,3.13-2.16a35.57,35.57,0,0,0,4.2-3.53,40.44,40.44,0,0,0,6.56-8.59,48.08,48.08,0,0,0,3.38-7.46c.19-.55.36-1.1.53-1.66.11-.34.21-.68.32-1a63.54,63.54,0,0,0,2.71-12.75c.27-2.42.44-4.85.5-7.22a82.43,82.43,0,0,0-.75-14A58.47,58.47,0,0,0,205.06,80.34Z"
        transform="translate(-41.24 -45.15)" />
    <path class="cls-1"
        d="M204.69,223.7c-.12-.95-.25-1.9-.38-2.84-.09-.61-.17-1.23-.26-1.84a51.85,51.85,0,0,0-1.39-6.79c-.39-1.41-.82-2.84-1.29-4.23-.55-1.64-1.15-3.4-1.82-5.11a76.1,76.1,0,0,0-4.22-8.93,39.32,39.32,0,0,0-4-6.17c-.27-.34-.54-.67-.79-1a28.81,28.81,0,0,0-3-3.54,46.33,46.33,0,0,0-7-6,35.88,35.88,0,0,0-10.34-5c-1.42-.42-2.85-.7-4.24-1l-.58-.11a51.93,51.93,0,0,0-9-.8,2.87,2.87,0,0,0-1.87.5l-.67.48,0,1c0,.12,0,.24,0,.36l.06.64a10,10,0,0,1,.08,1.1,9.39,9.39,0,0,1-3.84,7.92,14.4,14.4,0,0,1-3.95,2.14,26.49,26.49,0,0,1-7,1.44,32.47,32.47,0,0,1-8.87-.46c-3.14-.63-5.88-1.24-8.38-1.88-2.13-.55-4.27-1.26-6.35-1.94-1.26-.41-2.53-.83-3.8-1.21L110,179.8c-1.38-.42-2.77-.85-4.16-1.25a41.2,41.2,0,0,0-6.17-1.09l-1.23-.16a33,33,0,0,0-3.75-.22c-1.39,0-2.79,0-4.19,0h-.74a59,59,0,0,0-12.14,1.24,55,55,0,0,0-19.82,8.3,29.09,29.09,0,0,0-4.54,3.94,26,26,0,0,0-3.79,5.09c-.58,1-1.13,2-1.68,3l-.17.33a34.26,34.26,0,0,0-2.56,5.93c-.69,2.21-1.48,4.72-2,7.26-.37,1.81-.76,3.76-1,5.78-.16,1.41-.29,2.83-.41,4.25l-.08.93c-.23,2.59-.34,5.15-.34,7.6V286.5c0,.3,0,.61,0,.91a2.34,2.34,0,0,0,.06.5l.23,1.33,1.57.05.82,0h97.81a42.18,42.18,0,0,0,4.42-.31l1.33-.14c.86-.08,1.7-.21,2.52-.34s1.43-.23,2.16-.31a56.4,56.4,0,0,0,6.11-1.09l.49-.11a73.75,73.75,0,0,0,7.89-2.2,63.25,63.25,0,0,0,15.24-7.25,47.83,47.83,0,0,0,14.64-15,72.74,72.74,0,0,0,4.3-8.67l0-.11a46.83,46.83,0,0,0,3.3-11.21c.23-1.38.4-2.77.53-3.82a53.37,53.37,0,0,0,.45-7.49c0-1.62-.14-3.24-.22-4.76C204.88,225.48,204.8,224.57,204.69,223.7Z"
        transform="translate(-41.24 -45.15)" />
</svg>