<svg viewBox="0 0 954 292" fill="none" xmlns="http://www.w3.org/2000/svg">
    <g clip-path="url(#clip0_4_2)">
        <path
            d="M436.97 143.01C450.41 148.95 458.12 161.52 458.12 177.16C458.12 200.96 439.83 219.69 414.49 219.69H342.36C341.646 219.69 340.938 219.549 340.278 219.276C339.618 219.002 339.018 218.602 338.513 218.097C338.008 217.591 337.607 216.992 337.334 216.332C337.061 215.672 336.92 214.964 336.92 214.25V77.4899C336.923 76.048 337.497 74.6658 338.516 73.6462C339.536 72.6266 340.918 72.0526 342.36 72.0499H411.36C434.93 72.0499 453.66 87.92 453.66 111.71C453.66 124.5 447.93 135.71 436.92 142.13L436.97 143.01ZM358.3 93.0099V134.01H410.52C422.86 134.01 432.12 125.2 432.12 113.52C432.12 101.4 422.64 93.03 410.74 93.03L358.3 93.0099ZM414.49 198.56C427.36 198.56 436.65 189.84 436.49 176.91C436.37 164.65 426.04 154.91 413.77 154.91H358.27V198.55L414.49 198.56Z"
            fill="black" />
        <path
            d="M479.95 72.0499H492.79C493.921 72.0526 495.004 72.5036 495.803 73.3041C496.601 74.1046 497.05 75.1892 497.05 76.3199V215.42C497.05 216.551 496.601 217.635 495.803 218.436C495.004 219.236 493.921 219.687 492.79 219.69H479.95C478.817 219.69 477.731 219.24 476.931 218.439C476.13 217.638 475.68 216.552 475.68 215.42V76.3199C475.68 75.1875 476.13 74.1014 476.931 73.3006C477.731 72.4998 478.817 72.0499 479.95 72.0499Z"
            fill="black" />
        <path
            d="M518.79 110.61H531.37C532.479 110.61 533.542 111.05 534.326 111.834C535.11 112.618 535.55 113.681 535.55 114.79V171.11C535.55 190.76 553.45 206 572.69 202.03C587.17 199.03 596.15 186.65 596.15 170.77V114.76C596.15 113.653 596.589 112.591 597.371 111.808C598.152 111.024 599.213 110.583 600.32 110.58H612.9C614.009 110.58 615.072 111.02 615.856 111.804C616.64 112.588 617.08 113.651 617.08 114.76V170.96C617.08 202.25 596.59 222.74 565.74 222.74C535.11 222.74 514.61 202.25 514.61 170.96V114.76C514.618 113.657 515.062 112.601 515.845 111.824C516.628 111.046 517.687 110.61 518.79 110.61Z"
            fill="black" />
        <path
            d="M744.18 172.53H656.9C658.44 189.53 672.54 202.72 692.37 202.72C705.76 202.72 716.97 196.72 722.21 187.3C722.47 186.833 722.85 186.444 723.311 186.174C723.771 185.903 724.296 185.76 724.83 185.76H740.54C741.036 185.758 741.524 185.878 741.962 186.111C742.399 186.344 742.772 186.681 743.048 187.093C743.323 187.505 743.492 187.979 743.54 188.472C743.587 188.966 743.512 189.463 743.32 189.92C735 210.55 715.48 222.77 691.49 222.77C656.23 222.77 634.64 196.33 634.64 165.26C634.64 133.26 657.56 107.53 691.05 107.53C726.22 107.53 748.66 134.66 747.2 169.63C747.174 170.412 746.844 171.152 746.28 171.694C745.715 172.236 744.962 172.536 744.18 172.53ZM657.34 154.02H724.34C721.04 138.38 708.04 127.58 690.63 127.58C673.42 127.58 660.42 138.6 657.34 154.02Z"
            fill="black" />
        <path
            d="M769.39 72.0499H791.55C792.76 72.0526 793.92 72.5353 794.775 73.392C795.63 74.2488 796.11 75.4096 796.11 76.6199V215.12C796.111 215.72 795.994 216.314 795.766 216.868C795.537 217.422 795.202 217.926 794.778 218.351C794.354 218.775 793.851 219.112 793.297 219.342C792.743 219.572 792.15 219.69 791.55 219.69H769.39C768.178 219.69 767.016 219.208 766.159 218.351C765.302 217.494 764.82 216.332 764.82 215.12V76.6199C764.823 75.4087 765.305 74.2479 766.161 73.3914C767.018 72.5349 768.179 72.0526 769.39 72.0499Z"
            fill="black" />
        <path
            d="M816.11 76.6199C816.113 75.4087 816.595 74.2479 817.451 73.3914C818.308 72.5349 819.469 72.0526 820.68 72.0499H878.25C922.1 72.0499 953.83 102.9 953.83 145.43V146.09C953.83 188.62 922.1 219.69 878.25 219.69H820.68C820.08 219.69 819.486 219.572 818.931 219.342C818.377 219.112 817.873 218.776 817.448 218.351C817.024 217.927 816.688 217.423 816.458 216.869C816.228 216.314 816.11 215.72 816.11 215.12V76.6199ZM847.4 102.46V189.06H877.81C903.81 189.06 921.88 171.87 921.88 146.06V145.4C921.88 119.62 903.81 102.4 877.81 102.4L847.4 102.46Z"
            fill="black" />
        <path
            d="M171.63 59.9299C160.232 54.7864 148.02 51.6827 135.55 50.7599C131.97 50.4656 128.419 51.6055 125.679 53.9291C122.939 56.2527 121.234 59.5695 120.94 63.15C120.646 66.7304 121.786 70.2811 124.109 73.021C126.433 75.7609 129.75 77.4656 133.33 77.7599C142.657 78.4034 151.797 80.6885 160.33 84.5099C174.318 91.0094 186.162 101.364 194.473 114.357C202.784 127.351 207.216 142.446 207.25 157.87C207.294 170.264 204.448 182.497 198.94 193.6C198.088 195.198 197.565 196.951 197.403 198.755C197.241 200.559 197.443 202.377 197.997 204.101C198.55 205.826 199.444 207.421 200.626 208.794C201.808 210.166 203.253 211.288 204.876 212.091C206.499 212.895 208.267 213.364 210.075 213.472C211.883 213.579 213.694 213.323 215.401 212.717C217.108 212.112 218.676 211.17 220.012 209.948C221.349 208.725 222.426 207.247 223.18 205.6C230.545 190.766 234.356 174.421 234.31 157.86C234.26 137.265 228.337 117.111 217.234 99.7652C206.132 82.4189 190.311 68.5998 171.63 59.9299Z"
            fill="url(#paint0_linear_4_2)" />
        <path
            d="M100.74 66.1C99.2881 62.8201 96.594 60.2503 93.2493 58.9548C89.9045 57.6593 86.1824 57.7439 82.9 59.19C63.7896 67.6527 47.5452 81.4787 36.1372 98.991C24.7291 116.503 18.6475 136.95 18.63 157.85V203.39C18.5809 205.197 18.8943 206.996 19.5519 208.68C20.2095 210.363 21.1979 211.898 22.4587 213.194C23.7194 214.49 25.2271 215.519 26.8925 216.222C28.5578 216.925 30.3473 217.288 32.155 217.288C33.9627 217.288 35.7521 216.925 37.4175 216.222C39.0829 215.519 40.5905 214.49 41.8513 213.194C43.1121 211.898 44.1005 210.363 44.7581 208.68C45.4156 206.996 45.7291 205.197 45.68 203.39V157.85C45.6887 142.191 50.2432 126.872 58.7905 113.752C67.3378 100.632 79.5103 90.2754 93.83 83.94C97.1117 82.4901 99.6832 79.7963 100.979 76.4508C102.275 73.1053 102.189 69.3821 100.74 66.1Z"
            fill="url(#paint1_linear_4_2)" />
        <path
            d="M283.5 146.33C283.185 144.589 282.529 142.928 281.57 141.442C280.61 139.956 279.367 138.673 277.911 137.669C276.455 136.665 274.815 135.958 273.085 135.589C271.355 135.22 269.569 135.197 267.83 135.52C264.306 136.161 261.179 138.169 259.13 141.106C257.08 144.043 256.275 147.672 256.89 151.2C257.126 153.409 257.239 155.629 257.23 157.85C257.23 159.98 257.23 162.09 257.09 164.16C257.04 165.07 256.99 165.97 256.93 166.91C256.366 175.238 255.003 183.493 252.86 191.56C251.932 195.026 252.419 198.72 254.213 201.827C256.008 204.934 258.964 207.202 262.43 208.13C265.896 209.058 269.59 208.572 272.697 206.777C275.804 204.982 278.072 202.026 279 198.56C281.592 188.808 283.237 178.828 283.91 168.76C283.99 167.69 284.05 166.6 284.11 165.47C284.22 162.95 284.28 160.41 284.28 157.8C284.299 153.963 284.038 150.129 283.5 146.33Z"
            fill="url(#paint2_linear_4_2)" />
        <path
            d="M264.49 112.6C267.75 111.104 270.283 108.376 271.531 105.014C272.78 101.651 272.643 97.931 271.15 94.67L270.37 92.95C257.844 65.2612 237.608 41.7659 212.082 25.2735C186.556 8.78116 156.82 -0.0104246 126.43 -0.0500003C90.9127 -0.178595 56.4111 11.7958 28.61 33.9C19.1058 41.416 10.4931 49.9952 2.94002 59.47C0.780631 62.2828 -0.188179 65.8309 0.242113 69.3508C0.672405 72.8707 2.46739 76.081 5.24077 78.2908C8.01415 80.5005 11.5442 81.5333 15.0713 81.1665C18.5984 80.7998 21.8405 79.0631 24.1 76.33C30.3615 68.4718 37.5012 61.3555 45.38 55.12C68.4178 36.8116 97.0034 26.8939 126.43 27C151.627 27.0385 176.28 34.3353 197.438 48.0173C218.597 61.6994 235.366 81.1874 245.74 104.15L246.56 105.93C247.299 107.546 248.348 109 249.649 110.21C250.951 111.42 252.477 112.362 254.143 112.981C255.808 113.601 257.579 113.886 259.354 113.82C261.13 113.755 262.875 113.34 264.49 112.6Z"
            fill="url(#paint3_linear_4_2)" />
        <path
            d="M165.95 198.01L166.28 197.72C172.819 191.18 177.648 183.13 180.34 174.282C183.032 165.433 183.504 156.058 181.714 146.984C179.925 137.91 175.929 129.416 170.08 122.252C164.23 115.088 156.707 109.474 148.175 105.906C139.642 102.338 130.362 100.925 121.154 101.793C111.946 102.66 103.093 105.781 95.3772 110.88C87.6611 115.979 81.3189 122.9 76.9105 131.03C72.5021 139.161 70.1631 148.251 70.1 157.5V291.5H134.2C145.099 291.509 155.727 288.102 164.589 281.758C173.452 275.413 180.103 266.451 183.607 256.13C187.111 245.81 187.292 234.65 184.125 224.222C180.958 213.793 174.602 204.619 165.95 197.99V198.01ZM105.74 137.13C109.147 133.722 113.342 131.208 117.954 129.81C122.565 128.412 127.45 128.173 132.176 129.115C136.901 130.056 141.322 132.149 145.045 135.208C148.768 138.267 151.68 142.197 153.52 146.65C155.361 151.103 156.075 155.942 155.599 160.737C155.122 165.532 153.47 170.135 150.789 174.139C148.107 178.142 144.48 181.423 140.227 183.689C135.975 185.955 131.229 187.137 126.41 187.13H97.16V157.62C97.1734 153.808 97.9381 150.037 99.4103 146.521C100.883 143.005 103.033 139.814 105.74 137.13ZM151.89 257.13C149.571 259.467 146.81 261.319 143.767 262.578C140.725 263.836 137.462 264.476 134.17 264.46H97.17V214.19H134.17C139.155 214.185 144.028 215.661 148.172 218.432C152.315 221.203 155.542 225.143 157.441 229.751C159.34 234.36 159.826 239.429 158.838 244.315C157.85 249.2 155.431 253.682 151.89 257.19V257.13Z"
            fill="url(#paint4_linear_4_2)" />
    </g>
    <defs>
        <linearGradient id="paint0_linear_4_2" x1="243.09" y1="18.2599" x2="56.71" y2="319.32"
            gradientUnits="userSpaceOnUse">
            <stop stop-color="#01FFFF" />
            <stop offset="1" stop-color="#0000FF" />
        </linearGradient>
        <linearGradient id="paint1_linear_4_2" x1="157.25" y1="-34.88" x2="-29.13" y2="266.18"
            gradientUnits="userSpaceOnUse">
            <stop stop-color="#01FFFF" />
            <stop offset="1" stop-color="#0000FF" />
        </linearGradient>
        <linearGradient id="paint2_linear_4_2" x1="329.94" y1="72.02" x2="143.56" y2="373.08"
            gradientUnits="userSpaceOnUse">
            <stop stop-color="#01FFFF" />
            <stop offset="1" stop-color="#0000FF" />
        </linearGradient>
        <linearGradient id="paint3_linear_4_2" x1="195.28" y1="-11.34" x2="8.90994" y2="289.73"
            gradientUnits="userSpaceOnUse">
            <stop stop-color="#01FFFF" />
            <stop offset="1" stop-color="#0000FF" />
        </linearGradient>
        <linearGradient id="paint4_linear_4_2" x1="240.5" y1="16.6499" x2="54.12" y2="317.72"
            gradientUnits="userSpaceOnUse">
            <stop stop-color="#01FFFF" />
            <stop offset="1" stop-color="#0000FF" />
        </linearGradient>
        <clipPath id="clip0_4_2">
            <rect width="953.84" height="291.52" fill="white" />
        </clipPath>
    </defs>
</svg>