<svg viewBox="0 0 461 144" fill="none" xmlns="http://www.w3.org/2000/svg">
    <path
        d="M0 60C0 31.7157 0 17.5736 8.7868 8.7868C17.5736 0 31.7157 0 60 0H84C112.284 0 126.426 0 135.213 8.7868C144 17.5736 144 31.7157 144 60V84C144 112.284 144 126.426 135.213 135.213C126.426 144 112.284 144 84 144H60C31.7157 144 17.5736 144 8.7868 135.213C0 126.426 0 112.284 0 84V60Z"
        fill="#484D0F" />
    <path
        d="M44.6875 42.125L52.8125 61.1094L60.5469 42.125H73.1641L59.4531 70.2891L73.4375 99H60.3125L52.2266 79.5859L44.1406 99H31.2891L45.5078 70.0547L31.6016 42.125H44.6875ZM89.7656 64.8594V115.25H78.8672V56.7344H88.9453L89.7656 64.8594ZM111.719 76.4219V79.2344C111.719 82.5417 111.432 85.4714 110.859 88.0234C110.286 90.5495 109.427 92.6979 108.281 94.4688C107.161 96.2135 105.755 97.5417 104.062 98.4531C102.37 99.3385 100.391 99.7812 98.125 99.7812C96.0156 99.7812 94.1927 99.2865 92.6562 98.2969C91.1458 97.2812 89.8698 95.888 88.8281 94.1172C87.7865 92.3464 86.9531 90.276 86.3281 87.9062C85.7031 85.5365 85.2214 82.9974 84.8828 80.2891V75.9141C85.1953 73.0234 85.651 70.3672 86.25 67.9453C86.849 65.4974 87.6693 63.375 88.7109 61.5781C89.7786 59.7812 91.0677 58.401 92.5781 57.4375C94.1146 56.4479 95.9375 55.9531 98.0469 55.9531C100.339 55.9531 102.331 56.3698 104.023 57.2031C105.742 58.0365 107.161 59.2995 108.281 60.9922C109.427 62.6589 110.286 64.7812 110.859 67.3594C111.432 69.9375 111.719 72.9583 111.719 76.4219ZM100.781 79.2344V76.4219C100.781 74.3906 100.664 72.6589 100.43 71.2266C100.221 69.7943 99.8828 68.6224 99.4141 67.7109C98.9453 66.7995 98.3333 66.1354 97.5781 65.7188C96.8229 65.3021 95.8984 65.0938 94.8047 65.0938C93.737 65.0938 92.7995 65.3021 91.9922 65.7188C91.2109 66.1354 90.5729 66.7474 90.0781 67.5547C89.5833 68.3359 89.2057 69.2995 88.9453 70.4453C88.6849 71.5651 88.5417 72.8411 88.5156 74.2734V81.9297C88.5677 83.6224 88.7891 85.1198 89.1797 86.4219C89.5964 87.724 90.2604 88.7656 91.1719 89.5469C92.0833 90.3021 93.3203 90.6797 94.8828 90.6797C96.0026 90.6797 96.9271 90.4453 97.6562 89.9766C98.4115 89.5078 99.0234 88.8047 99.4922 87.8672C99.9609 86.9297 100.286 85.7448 100.469 84.3125C100.677 82.8802 100.781 81.1875 100.781 79.2344Z"
        fill="#E8F531" />
    <path
        d="M208.227 89.5469V99H183.5V89.5469H208.227ZM187.055 42.125V99H175.609V42.125H187.055ZM204.906 65.1719V74.3516H183.5V65.1719H204.906ZM208.148 42.125V51.6172H183.5V42.125H208.148ZM223.695 56.7344L228.93 67.4766L233.422 56.7344H245.023L234.203 77.3984L245.453 99H233.773L228.422 87.8672L223.305 99H211.586L222.328 77.5156L211.977 56.7344H223.695ZM261.469 64.8594V115.25H250.57V56.7344H260.648L261.469 64.8594ZM283.422 76.4219V79.2344C283.422 82.5417 283.135 85.4714 282.562 88.0234C281.99 90.5495 281.13 92.6979 279.984 94.4688C278.865 96.2135 277.458 97.5417 275.766 98.4531C274.073 99.3385 272.094 99.7812 269.828 99.7812C267.719 99.7812 265.896 99.2865 264.359 98.2969C262.849 97.2812 261.573 95.888 260.531 94.1172C259.49 92.3464 258.656 90.276 258.031 87.9062C257.406 85.5365 256.924 82.9974 256.586 80.2891V75.9141C256.898 73.0234 257.354 70.3672 257.953 67.9453C258.552 65.4974 259.372 63.375 260.414 61.5781C261.482 59.7812 262.771 58.401 264.281 57.4375C265.818 56.4479 267.641 55.9531 269.75 55.9531C272.042 55.9531 274.034 56.3698 275.727 57.2031C277.445 58.0365 278.865 59.2995 279.984 60.9922C281.13 62.6589 281.99 64.7812 282.562 67.3594C283.135 69.9375 283.422 72.9583 283.422 76.4219ZM272.484 79.2344V76.4219C272.484 74.3906 272.367 72.6589 272.133 71.2266C271.924 69.7943 271.586 68.6224 271.117 67.7109C270.648 66.7995 270.036 66.1354 269.281 65.7188C268.526 65.3021 267.602 65.0938 266.508 65.0938C265.44 65.0938 264.503 65.3021 263.695 65.7188C262.914 66.1354 262.276 66.7474 261.781 67.5547C261.286 68.3359 260.909 69.2995 260.648 70.4453C260.388 71.5651 260.245 72.8411 260.219 74.2734V81.9297C260.271 83.6224 260.492 85.1198 260.883 86.4219C261.299 87.724 261.964 88.7656 262.875 89.5469C263.786 90.3021 265.023 90.6797 266.586 90.6797C267.706 90.6797 268.63 90.4453 269.359 89.9766C270.115 89.5078 270.727 88.8047 271.195 87.8672C271.664 86.9297 271.99 85.7448 272.172 84.3125C272.38 82.8802 272.484 81.1875 272.484 79.2344ZM301.078 66.1484V99H290.141V56.7344H300.453L301.078 66.1484ZM311.039 56.4219L310.883 67.3203C310.388 67.2161 309.789 67.138 309.086 67.0859C308.409 67.0339 307.81 67.0078 307.289 67.0078C306.065 67.0078 305.023 67.2031 304.164 67.5938C303.305 67.9583 302.589 68.5182 302.016 69.2734C301.469 70.0026 301.052 70.9141 300.766 72.0078C300.479 73.1016 300.31 74.3385 300.258 75.7188L298.188 74.9375C298.188 72.1771 298.396 69.651 298.812 67.3594C299.255 65.0417 299.906 63.0365 300.766 61.3438C301.625 59.625 302.654 58.2969 303.852 57.3594C305.076 56.4219 306.456 55.9531 307.992 55.9531C308.513 55.9531 309.06 56.0052 309.633 56.1094C310.232 56.1875 310.701 56.2917 311.039 56.4219ZM332.875 99.7812C329.984 99.7812 327.419 99.3385 325.18 98.4531C322.966 97.5677 321.091 96.2917 319.555 94.625C318.018 92.9323 316.846 90.888 316.039 88.4922C315.232 86.0964 314.828 83.362 314.828 80.2891V76.8125C314.828 73.375 315.219 70.3672 316 67.7891C316.781 65.1849 317.888 62.9974 319.32 61.2266C320.753 59.4557 322.51 58.1406 324.594 57.2812C326.703 56.3958 329.086 55.9531 331.742 55.9531C334.398 55.9531 336.729 56.3958 338.734 57.2812C340.766 58.1406 342.445 59.4427 343.773 61.1875C345.102 62.9062 346.104 65.0417 346.781 67.5938C347.458 70.1458 347.797 73.1146 347.797 76.5V81.5H319.477V73.8047H337.055V72.8281C337.055 71.1094 336.872 69.6771 336.508 68.5312C336.143 67.3594 335.57 66.487 334.789 65.9141C334.008 65.3411 332.966 65.0547 331.664 65.0547C330.57 65.0547 329.646 65.276 328.891 65.7188C328.135 66.1615 327.536 66.8516 327.094 67.7891C326.651 68.7266 326.326 69.9505 326.117 71.4609C325.909 72.9453 325.805 74.7292 325.805 76.8125V80.2891C325.805 82.2422 325.974 83.8828 326.312 85.2109C326.651 86.513 327.146 87.5807 327.797 88.4141C328.474 89.2214 329.294 89.8073 330.258 90.1719C331.221 90.5104 332.341 90.6797 333.617 90.6797C335.544 90.6797 337.276 90.3411 338.812 89.6641C340.375 88.9609 341.703 88.0104 342.797 86.8125L347.172 93.4531C346.417 94.4427 345.375 95.4323 344.047 96.4219C342.719 97.4115 341.13 98.2188 339.281 98.8438C337.432 99.4688 335.297 99.7812 332.875 99.7812ZM372.875 87.5938C372.875 86.8646 372.628 86.2135 372.133 85.6406C371.638 85.0677 370.857 84.4818 369.789 83.8828C368.721 83.2578 367.302 82.5677 365.531 81.8125C363.604 81.0312 361.898 80.224 360.414 79.3906C358.93 78.5573 357.667 77.6328 356.625 76.6172C355.609 75.6016 354.841 74.4427 354.32 73.1406C353.799 71.8385 353.539 70.3542 353.539 68.6875C353.539 66.8906 353.865 65.237 354.516 63.7266C355.193 62.1901 356.156 60.849 357.406 59.7031C358.656 58.5312 360.18 57.6198 361.977 56.9688C363.799 56.2917 365.844 55.9531 368.109 55.9531C371.286 55.9531 374.008 56.513 376.273 57.6328C378.565 58.7266 380.323 60.263 381.547 62.2422C382.771 64.2214 383.383 66.526 383.383 69.1562H372.445C372.445 68.2188 372.302 67.3854 372.016 66.6562C371.729 65.901 371.26 65.3151 370.609 64.8984C369.984 64.4818 369.138 64.2734 368.07 64.2734C367.289 64.2734 366.586 64.4427 365.961 64.7812C365.362 65.1198 364.88 65.5755 364.516 66.1484C364.177 66.6953 364.008 67.3464 364.008 68.1016C364.008 68.6745 364.125 69.1823 364.359 69.625C364.62 70.0677 365.023 70.4974 365.57 70.9141C366.117 71.3307 366.846 71.7734 367.758 72.2422C368.695 72.6849 369.841 73.1797 371.195 73.7266C374.008 74.7682 376.312 75.888 378.109 77.0859C379.932 78.2839 381.286 79.6901 382.172 81.3047C383.057 82.8932 383.5 84.8594 383.5 87.2031C383.5 89.0781 383.135 90.7839 382.406 92.3203C381.703 93.8568 380.674 95.1849 379.32 96.3047C377.966 97.4245 376.339 98.2839 374.438 98.8828C372.562 99.4818 370.466 99.7812 368.148 99.7812C364.737 99.7812 361.859 99.1042 359.516 97.75C357.172 96.3958 355.401 94.6641 354.203 92.5547C353.005 90.4193 352.406 88.2057 352.406 85.9141H362.797C362.849 87.3203 363.109 88.4271 363.578 89.2344C364.073 90.0156 364.737 90.5625 365.57 90.875C366.404 91.1875 367.328 91.3438 368.344 91.3438C369.359 91.3438 370.193 91.2135 370.844 90.9531C371.521 90.6667 372.029 90.237 372.367 89.6641C372.706 89.0651 372.875 88.375 372.875 87.5938ZM409.203 87.5938C409.203 86.8646 408.956 86.2135 408.461 85.6406C407.966 85.0677 407.185 84.4818 406.117 83.8828C405.049 83.2578 403.63 82.5677 401.859 81.8125C399.932 81.0312 398.227 80.224 396.742 79.3906C395.258 78.5573 393.995 77.6328 392.953 76.6172C391.938 75.6016 391.169 74.4427 390.648 73.1406C390.128 71.8385 389.867 70.3542 389.867 68.6875C389.867 66.8906 390.193 65.237 390.844 63.7266C391.521 62.1901 392.484 60.849 393.734 59.7031C394.984 58.5312 396.508 57.6198 398.305 56.9688C400.128 56.2917 402.172 55.9531 404.438 55.9531C407.615 55.9531 410.336 56.513 412.602 57.6328C414.893 58.7266 416.651 60.263 417.875 62.2422C419.099 64.2214 419.711 66.526 419.711 69.1562H408.773C408.773 68.2188 408.63 67.3854 408.344 66.6562C408.057 65.901 407.589 65.3151 406.938 64.8984C406.312 64.4818 405.466 64.2734 404.398 64.2734C403.617 64.2734 402.914 64.4427 402.289 64.7812C401.69 65.1198 401.208 65.5755 400.844 66.1484C400.505 66.6953 400.336 67.3464 400.336 68.1016C400.336 68.6745 400.453 69.1823 400.688 69.625C400.948 70.0677 401.352 70.4974 401.898 70.9141C402.445 71.3307 403.174 71.7734 404.086 72.2422C405.023 72.6849 406.169 73.1797 407.523 73.7266C410.336 74.7682 412.641 75.888 414.438 77.0859C416.26 78.2839 417.615 79.6901 418.5 81.3047C419.385 82.8932 419.828 84.8594 419.828 87.2031C419.828 89.0781 419.464 90.7839 418.734 92.3203C418.031 93.8568 417.003 95.1849 415.648 96.3047C414.294 97.4245 412.667 98.2839 410.766 98.8828C408.891 99.4818 406.794 99.7812 404.477 99.7812C401.065 99.7812 398.188 99.1042 395.844 97.75C393.5 96.3958 391.729 94.6641 390.531 92.5547C389.333 90.4193 388.734 88.2057 388.734 85.9141H399.125C399.177 87.3203 399.438 88.4271 399.906 89.2344C400.401 90.0156 401.065 90.5625 401.898 90.875C402.732 91.1875 403.656 91.3438 404.672 91.3438C405.688 91.3438 406.521 91.2135 407.172 90.9531C407.849 90.6667 408.357 90.237 408.695 89.6641C409.034 89.0651 409.203 88.375 409.203 87.5938ZM445.414 89.2734V69.7422C445.414 68.4661 445.258 67.4505 444.945 66.6953C444.659 65.9401 444.216 65.3932 443.617 65.0547C443.044 64.6901 442.341 64.5078 441.508 64.5078C440.57 64.5078 439.789 64.7031 439.164 65.0938C438.539 65.4844 438.07 66.0443 437.758 66.7734C437.471 67.5026 437.328 68.375 437.328 69.3906H426.352C426.352 67.5677 426.703 65.849 427.406 64.2344C428.109 62.5938 429.138 61.1615 430.492 59.9375C431.872 58.6875 433.513 57.7109 435.414 57.0078C437.315 56.3047 439.451 55.9531 441.82 55.9531C444.633 55.9531 447.133 56.4349 449.32 57.3984C451.508 58.3359 453.24 59.8333 454.516 61.8906C455.792 63.9479 456.43 66.6172 456.43 69.8984V88.7266C456.43 91.0964 456.547 93.0234 456.781 94.5078C457.042 95.9922 457.419 97.2682 457.914 98.3359V99H446.898C446.404 97.8281 446.026 96.3698 445.766 94.625C445.531 92.8542 445.414 91.0703 445.414 89.2734ZM446.742 73.1797L446.781 79.7422H442.758C441.716 79.7422 440.805 79.9115 440.023 80.25C439.268 80.5885 438.63 81.0703 438.109 81.6953C437.589 82.2943 437.198 82.9974 436.938 83.8047C436.703 84.612 436.586 85.4714 436.586 86.3828C436.586 87.3984 436.729 88.2578 437.016 88.9609C437.302 89.6641 437.732 90.1979 438.305 90.5625C438.878 90.9271 439.555 91.1094 440.336 91.1094C441.534 91.1094 442.576 90.862 443.461 90.3672C444.346 89.8724 444.997 89.2734 445.414 88.5703C445.857 87.8672 446 87.2161 445.844 86.6172L448.344 90.875C448.031 91.8385 447.602 92.8411 447.055 93.8828C446.534 94.9245 445.87 95.888 445.062 96.7734C444.255 97.6589 443.253 98.388 442.055 98.9609C440.883 99.5078 439.49 99.7812 437.875 99.7812C435.609 99.7812 433.539 99.2604 431.664 98.2188C429.789 97.1771 428.305 95.7188 427.211 93.8438C426.143 91.9688 425.609 89.7422 425.609 87.1641C425.609 85.0286 425.948 83.1016 426.625 81.3828C427.328 79.638 428.37 78.1667 429.75 76.9688C431.13 75.7448 432.875 74.8073 434.984 74.1562C437.094 73.5052 439.568 73.1797 442.406 73.1797H446.742Z"
        fill="black" />
</svg>