<svg viewBox="0 0 603 122" fill="none" xmlns="http://www.w3.org/2000/svg">
    <path
        d="M87 19.0225C87 13.3908 82.4896 7.55321 73.7829 7.14138C66.5124 6.80155 51.9599 7.14137 42.5344 7.45672C33.1059 7.77208 20.1985 7.9636 8.10652 9.80387C0.945521 10.8997 -0.149291 18.5315 0.0149327 21.4791C0.187799 24.6369 1.8963 45.7333 2.68429 55.4666C2.69437 56.6522 2.62524 57.7407 2.70015 59.0299C3.06749 65.2959 4.13062 70.7633 6.33755 76.0861C6.52914 76.5484 5.6259 74.4858 6.93248 77.4596C8.23619 80.4324 12.4368 87.3077 16.1895 91.137C16.1895 91.137 19.0576 93.1659 21.0384 96.0531C23.0192 98.9431 32.1379 107.158 33.1175 108.448C34.6517 110.467 37.128 112.526 37.128 112.526L45.2541 120.792C45.2541 120.792 47.088 123.51 48.9751 120.792C50.214 119.002 59.8801 105.168 66.9273 95.7494C70.5863 90.8592 74.5363 85.2865 74.5363 85.2865C77.8597 80.8587 79.718 75.5304 81.4654 69.9308C82.5054 66.5998 83.3179 63.6496 83.802 60.5531C83.838 60.5008 83.9143 60.453 83.9258 60.3984C84.9501 55.79 87 24.6571 87 19.0225"
        fill="#FB5353" />
    <path
        d="M24.0568 91V32.8182H36.358V58.4716H37.125L58.0625 32.8182H72.8068L51.2159 58.8693L73.0625 91H58.3466L42.4091 67.0795L36.358 74.4659V91H24.0568Z"
        fill="white" />
    <path
        d="M103.088 32.8182V91H90.9858V32.8182H103.088ZM129.226 91.8239C126.442 91.8239 123.961 91.3409 121.783 90.375C119.605 89.3902 117.881 87.9413 116.612 86.0284C115.362 84.0966 114.737 81.6913 114.737 78.8125C114.737 76.3883 115.182 74.3523 116.072 72.7045C116.963 71.0568 118.175 69.7311 119.709 68.7273C121.243 67.7235 122.985 66.9659 124.936 66.4545C126.906 65.9432 128.97 65.5833 131.129 65.375C133.667 65.1098 135.713 64.8636 137.266 64.6364C138.819 64.3902 139.946 64.0303 140.646 63.5568C141.347 63.0833 141.697 62.3826 141.697 61.4545V61.2841C141.697 59.4848 141.129 58.0928 139.993 57.108C138.875 56.1231 137.285 55.6307 135.22 55.6307C133.042 55.6307 131.309 56.1136 130.021 57.0795C128.733 58.0265 127.881 59.2197 127.464 60.6591L116.271 59.75C116.839 57.0985 117.957 54.8068 119.624 52.875C121.29 50.9242 123.44 49.428 126.072 48.3864C128.724 47.3258 131.792 46.7955 135.277 46.7955C137.701 46.7955 140.021 47.0795 142.237 47.6477C144.472 48.2159 146.451 49.0966 148.175 50.2898C149.917 51.483 151.29 53.017 152.294 54.892C153.298 56.7481 153.8 58.9735 153.8 61.5682V91H142.322V84.9489H141.982C141.281 86.3125 140.343 87.5152 139.169 88.5568C137.995 89.5795 136.584 90.3845 134.936 90.9716C133.288 91.5398 131.385 91.8239 129.226 91.8239ZM132.692 83.4716C134.472 83.4716 136.044 83.1212 137.408 82.4205C138.771 81.7008 139.841 80.7348 140.618 79.5227C141.394 78.3106 141.783 76.9375 141.783 75.4034V70.7727C141.404 71.0189 140.883 71.2462 140.22 71.4545C139.576 71.6439 138.847 71.8239 138.033 71.9943C137.218 72.1458 136.404 72.2879 135.589 72.4205C134.775 72.5341 134.036 72.6383 133.374 72.733C131.953 72.9413 130.713 73.2727 129.652 73.7273C128.591 74.1818 127.768 74.7973 127.18 75.5739C126.593 76.3314 126.3 77.2784 126.3 78.4148C126.3 80.0625 126.896 81.322 128.089 82.1932C129.302 83.0455 130.836 83.4716 132.692 83.4716ZM203.496 59.8068L192.416 60.4886C192.227 59.5417 191.82 58.6894 191.195 57.9318C190.57 57.1553 189.746 56.5398 188.723 56.0852C187.719 55.6117 186.517 55.375 185.115 55.375C183.24 55.375 181.659 55.7727 180.371 56.5682C179.083 57.3447 178.439 58.3864 178.439 59.6932C178.439 60.7348 178.856 61.6155 179.689 62.3352C180.522 63.0549 181.952 63.6326 183.979 64.0682L191.876 65.6591C196.119 66.5303 199.282 67.9318 201.365 69.8636C203.448 71.7955 204.49 74.3333 204.49 77.4773C204.49 80.3371 203.647 82.8466 201.962 85.0057C200.295 87.1648 198.003 88.8504 195.087 90.0625C192.189 91.2557 188.846 91.8523 185.058 91.8523C179.282 91.8523 174.679 90.6496 171.251 88.2443C167.842 85.8201 165.844 82.5246 165.257 78.358L177.161 77.733C177.52 79.4943 178.392 80.839 179.774 81.767C181.157 82.6761 182.928 83.1307 185.087 83.1307C187.208 83.1307 188.912 82.7235 190.2 81.9091C191.507 81.0758 192.17 80.0057 192.189 78.6989C192.17 77.6004 191.706 76.7008 190.797 76C189.888 75.2803 188.486 74.7311 186.592 74.3523L179.036 72.8466C174.774 71.9943 171.602 70.517 169.518 68.4148C167.454 66.3125 166.422 63.6326 166.422 60.375C166.422 57.572 167.179 55.1572 168.695 53.1307C170.229 51.1042 172.378 49.5417 175.143 48.4432C177.928 47.3447 181.185 46.7955 184.916 46.7955C190.428 46.7955 194.765 47.9602 197.928 50.2898C201.109 52.6193 202.965 55.7917 203.496 59.8068ZM252.418 59.8068L241.338 60.4886C241.149 59.5417 240.741 58.6894 240.116 57.9318C239.491 57.1553 238.668 56.5398 237.645 56.0852C236.641 55.6117 235.438 55.375 234.037 55.375C232.162 55.375 230.58 55.7727 229.293 56.5682C228.005 57.3447 227.361 58.3864 227.361 59.6932C227.361 60.7348 227.777 61.6155 228.611 62.3352C229.444 63.0549 230.874 63.6326 232.901 64.0682L240.798 65.6591C245.041 66.5303 248.204 67.9318 250.287 69.8636C252.37 71.7955 253.412 74.3333 253.412 77.4773C253.412 80.3371 252.569 82.8466 250.884 85.0057C249.217 87.1648 246.925 88.8504 244.009 90.0625C241.111 91.2557 237.768 91.8523 233.98 91.8523C228.204 91.8523 223.601 90.6496 220.173 88.2443C216.764 85.8201 214.766 82.5246 214.179 78.358L226.082 77.733C226.442 79.4943 227.313 80.839 228.696 81.767C230.079 82.6761 231.849 83.1307 234.009 83.1307C236.13 83.1307 237.834 82.7235 239.122 81.9091C240.429 81.0758 241.092 80.0057 241.111 78.6989C241.092 77.6004 240.628 76.7008 239.719 76C238.81 75.2803 237.408 74.7311 235.514 74.3523L227.957 72.8466C223.696 71.9943 220.524 70.517 218.44 68.4148C216.376 66.3125 215.344 63.6326 215.344 60.375C215.344 57.572 216.101 55.1572 217.616 53.1307C219.151 51.1042 221.3 49.5417 224.065 48.4432C226.849 47.3447 230.107 46.7955 233.838 46.7955C239.349 46.7955 243.687 47.9602 246.849 50.2898C250.031 52.6193 251.887 55.7917 252.418 59.8068ZM284.919 91.8523C280.43 91.8523 276.567 90.9432 273.328 89.125C270.108 87.2879 267.627 84.6932 265.885 81.3409C264.143 77.9697 263.271 73.983 263.271 69.3807C263.271 64.892 264.143 60.9527 265.885 57.5625C267.627 54.1723 270.08 51.5303 273.243 49.6364C276.425 47.7424 280.156 46.7955 284.436 46.7955C287.315 46.7955 289.995 47.2595 292.476 48.1875C294.976 49.0966 297.154 50.4697 299.01 52.3068C300.885 54.1439 302.343 56.4545 303.385 59.2386C304.427 62.0038 304.947 65.2424 304.947 68.9545V72.2784H268.101V64.7784H293.555C293.555 63.036 293.177 61.4924 292.419 60.1477C291.661 58.803 290.61 57.7519 289.266 56.9943C287.94 56.2178 286.396 55.8295 284.635 55.8295C282.798 55.8295 281.169 56.2557 279.749 57.108C278.347 57.9413 277.249 59.0682 276.453 60.4886C275.658 61.8902 275.25 63.4527 275.232 65.1761V72.3068C275.232 74.4659 275.629 76.3314 276.425 77.9034C277.239 79.4754 278.385 80.6875 279.862 81.5398C281.339 82.392 283.091 82.8182 285.118 82.8182C286.463 82.8182 287.694 82.6288 288.811 82.25C289.929 81.8712 290.885 81.303 291.68 80.5455C292.476 79.7879 293.082 78.8598 293.499 77.7614L304.692 78.5C304.124 81.1894 302.959 83.5379 301.197 85.5455C299.455 87.5341 297.201 89.0871 294.436 90.2045C291.69 91.303 288.518 91.8523 284.919 91.8523ZM328.947 65.7727V91H316.845V47.3636H328.379V55.0625H328.891C329.857 52.5246 331.476 50.517 333.749 49.0398C336.021 47.5436 338.777 46.7955 342.016 46.7955C345.046 46.7955 347.688 47.4583 349.942 48.7841C352.196 50.1098 353.947 52.0038 355.197 54.4659C356.447 56.9091 357.072 59.8258 357.072 63.2159V91H344.97V65.375C344.989 62.7045 344.307 60.6212 342.925 59.125C341.542 57.6098 339.639 56.8523 337.214 56.8523C335.586 56.8523 334.146 57.2027 332.896 57.9034C331.665 58.6042 330.699 59.6269 329.999 60.9716C329.317 62.2973 328.966 63.8977 328.947 65.7727ZM383.054 91.8239C380.27 91.8239 377.789 91.3409 375.611 90.375C373.433 89.3902 371.709 87.9413 370.44 86.0284C369.19 84.0966 368.565 81.6913 368.565 78.8125C368.565 76.3883 369.01 74.3523 369.901 72.7045C370.791 71.0568 372.003 69.7311 373.537 68.7273C375.071 67.7235 376.813 66.9659 378.764 66.4545C380.734 65.9432 382.798 65.5833 384.957 65.375C387.495 65.1098 389.541 64.8636 391.094 64.6364C392.647 64.3902 393.774 64.0303 394.474 63.5568C395.175 63.0833 395.526 62.3826 395.526 61.4545V61.2841C395.526 59.4848 394.957 58.0928 393.821 57.108C392.704 56.1231 391.113 55.6307 389.048 55.6307C386.87 55.6307 385.137 56.1136 383.849 57.0795C382.562 58.0265 381.709 59.2197 381.293 60.6591L370.099 59.75C370.668 57.0985 371.785 54.8068 373.452 52.875C375.118 50.9242 377.268 49.428 379.901 48.3864C382.552 47.3258 385.62 46.7955 389.105 46.7955C391.529 46.7955 393.849 47.0795 396.065 47.6477C398.3 48.2159 400.279 49.0966 402.003 50.2898C403.745 51.483 405.118 53.017 406.122 54.892C407.126 56.7481 407.628 58.9735 407.628 61.5682V91H396.151V84.9489H395.81C395.109 86.3125 394.171 87.5152 392.997 88.5568C391.823 89.5795 390.412 90.3845 388.764 90.9716C387.116 91.5398 385.213 91.8239 383.054 91.8239ZM386.52 83.4716C388.3 83.4716 389.872 83.1212 391.236 82.4205C392.599 81.7008 393.67 80.7348 394.446 79.5227C395.223 78.3106 395.611 76.9375 395.611 75.4034V70.7727C395.232 71.0189 394.711 71.2462 394.048 71.4545C393.404 71.6439 392.675 71.8239 391.861 71.9943C391.046 72.1458 390.232 72.2879 389.418 72.4205C388.603 72.5341 387.865 72.6383 387.202 72.733C385.781 72.9413 384.541 73.2727 383.48 73.7273C382.42 74.1818 381.596 74.7973 381.009 75.5739C380.421 76.3314 380.128 77.2784 380.128 78.4148C380.128 80.0625 380.724 81.322 381.918 82.1932C383.13 83.0455 384.664 83.4716 386.52 83.4716ZM433.119 32.8182V91H421.017V32.8182H433.119ZM459.257 91.8239C456.473 91.8239 453.992 91.3409 451.814 90.375C449.636 89.3902 447.912 87.9413 446.643 86.0284C445.393 84.0966 444.768 81.6913 444.768 78.8125C444.768 76.3883 445.214 74.3523 446.104 72.7045C446.994 71.0568 448.206 69.7311 449.74 68.7273C451.274 67.7235 453.017 66.9659 454.967 66.4545C456.937 65.9432 459.001 65.5833 461.161 65.375C463.698 65.1098 465.744 64.8636 467.297 64.6364C468.85 64.3902 469.977 64.0303 470.678 63.5568C471.378 63.0833 471.729 62.3826 471.729 61.4545V61.2841C471.729 59.4848 471.161 58.0928 470.024 57.108C468.907 56.1231 467.316 55.6307 465.251 55.6307C463.073 55.6307 461.34 56.1136 460.053 57.0795C458.765 58.0265 457.912 59.2197 457.496 60.6591L446.303 59.75C446.871 57.0985 447.988 54.8068 449.655 52.875C451.321 50.9242 453.471 49.428 456.104 48.3864C458.755 47.3258 461.823 46.7955 465.308 46.7955C467.732 46.7955 470.053 47.0795 472.268 47.6477C474.503 48.2159 476.482 49.0966 478.206 50.2898C479.948 51.483 481.321 53.017 482.325 54.892C483.329 56.7481 483.831 58.9735 483.831 61.5682V91H472.354V84.9489H472.013C471.312 86.3125 470.375 87.5152 469.2 88.5568C468.026 89.5795 466.615 90.3845 464.967 90.9716C463.32 91.5398 461.416 91.8239 459.257 91.8239ZM462.723 83.4716C464.503 83.4716 466.075 83.1212 467.439 82.4205C468.803 81.7008 469.873 80.7348 470.649 79.5227C471.426 78.3106 471.814 76.9375 471.814 75.4034V70.7727C471.435 71.0189 470.914 71.2462 470.251 71.4545C469.607 71.6439 468.878 71.8239 468.064 71.9943C467.25 72.1458 466.435 72.2879 465.621 72.4205C464.806 72.5341 464.068 72.6383 463.405 72.733C461.984 72.9413 460.744 73.2727 459.683 73.7273C458.623 74.1818 457.799 74.7973 457.212 75.5739C456.625 76.3314 456.331 77.2784 456.331 78.4148C456.331 80.0625 456.928 81.322 458.121 82.1932C459.333 83.0455 460.867 83.4716 462.723 83.4716ZM497.22 91V47.3636H508.953V54.9773H509.408C510.203 52.2689 511.538 50.2235 513.413 48.8409C515.288 47.4394 517.447 46.7386 519.891 46.7386C520.497 46.7386 521.15 46.7765 521.851 46.8523C522.552 46.928 523.167 47.0322 523.697 47.1648V57.9034C523.129 57.733 522.343 57.5814 521.339 57.4489C520.336 57.3163 519.417 57.25 518.584 57.25C516.804 57.25 515.213 57.6383 513.811 58.4148C512.429 59.1723 511.33 60.233 510.516 61.5966C509.72 62.9602 509.322 64.5322 509.322 66.3125V91H497.22ZM533.955 91V47.3636H545.489V55.0625H546C546.909 52.5057 548.424 50.4886 550.545 49.0114C552.667 47.5341 555.205 46.7955 558.159 46.7955C561.152 46.7955 563.699 47.5436 565.801 49.0398C567.903 50.517 569.305 52.5246 570.006 55.0625H570.46C571.35 52.5625 572.96 50.5644 575.29 49.0682C577.638 47.553 580.413 46.7955 583.614 46.7955C587.686 46.7955 590.991 48.0928 593.528 50.6875C596.085 53.2633 597.364 56.9186 597.364 61.6534V91H585.29V64.0398C585.29 61.6155 584.646 59.7973 583.358 58.5852C582.07 57.3731 580.46 56.767 578.528 56.767C576.331 56.767 574.617 57.4678 573.386 58.8693C572.155 60.2519 571.54 62.0795 571.54 64.3523V91H559.807V63.7841C559.807 61.6439 559.191 59.9394 557.96 58.6705C556.748 57.4015 555.148 56.767 553.159 56.767C551.814 56.767 550.602 57.108 549.523 57.7898C548.462 58.4527 547.619 59.3902 546.994 60.6023C546.369 61.7955 546.057 63.197 546.057 64.8068V91H533.955Z"
        fill="#FB5353" />
</svg>