<svg viewBox="0 0 256 256" fill="none" xmlns="http://www.w3.org/2000/svg">
    <path fill-rule="evenodd" clip-rule="evenodd"
        d="M205.984 50.1165C206.02 49.9681 206.153 49.8635 206.305 49.8635C208.44 49.8635 223.103 49.8635 227.369 49.8635C236.581 49.8635 245.794 61.3219 238.52 72.8115C228.038 89.3713 207.102 109.613 206.797 124.549C206.796 124.73 206.648 124.876 206.467 124.876C203.256 124.877 177.473 124.877 177.473 124.877C177.473 104.41 197.183 86.4136 205.984 50.1165V50.1165Z"
        fill="white" />
    <path fill-rule="evenodd" clip-rule="evenodd"
        d="M177.473 130.138H230.852C240.722 130.138 249.1 136.811 249.1 143.902C259.731 149.542 256.997 162.651 248.22 165.86C248.423 160.061 242.978 157.564 239.226 159.013C234.92 160.675 230.212 163.46 223.304 165.269C201.243 171.047 177.686 156.611 177.473 130.138V130.138Z"
        fill="white" />
    <path fill-rule="evenodd" clip-rule="evenodd"
        d="M97.69 151.754C65.1952 175.516 18.6753 163.405 0.0870882 131.144C-0.0300186 130.939 -0.0286914 130.687 0.089077 130.483C0.207507 130.279 0.425179 130.154 0.660716 130.154C12.55 130.173 96.0459 130.417 119.857 130.479L119.867 130.493C124.792 135.112 131.231 136.113 136.833 134.117C132.997 134.753 129.489 134.033 125.849 131.04C124.314 129.808 100.759 110.795 100.759 110.795C100.632 110.693 100.583 110.522 100.637 110.368C100.692 110.214 100.837 110.111 100.999 110.111C106.993 110.111 138.58 110.111 150.292 110.111C152.946 110.111 155.344 108.528 156.39 106.085C156.746 105.251 157.016 104.621 157.016 104.621H96.3767C94.2343 104.621 92.1562 103.889 90.4843 102.547C85.1338 98.2522 73.0592 88.5604 69.7504 85.9041C69.6234 85.8021 69.5744 85.6312 69.628 85.4768C69.6823 85.3232 69.8272 85.2205 69.9906 85.2205C79.0998 85.2205 143.459 85.2205 160.944 85.2205C163.597 85.2205 165.996 83.6366 167.041 81.1943C167.398 80.3603 167.668 79.7297 167.668 79.7297H65.3679C63.2249 79.7297 61.1467 78.9984 59.4755 77.6564C54.383 73.5692 43.2671 64.6465 40.1092 62.1114C39.9815 62.0094 39.9332 61.8385 39.9868 61.6842C40.041 61.5305 40.1859 61.4272 40.3493 61.4272C51.8205 61.4272 149.195 61.4272 171.125 61.4272C173.779 61.4272 176.177 59.844 177.222 57.4017C177.579 56.5677 177.849 55.9371 177.849 55.9371H35.7266C33.5836 55.9371 31.5055 55.2058 29.8335 53.8637C23.4826 48.7657 7.33712 35.8056 3.44812 32.6843C3.32043 32.5823 3.27213 32.4107 3.32572 32.257C3.37998 32.1027 3.52487 32 3.68763 32C16.7301 32 142.902 32 183.803 32C193.62 32 201.694 40.5697 199.359 52.2805C195.217 73.0413 170.507 105.196 170.507 130.152H170.591C170.591 154.318 192.084 174.313 217.98 169.292C217.981 169.292 217.982 169.292 217.983 169.292C217.984 169.292 217.984 169.292 217.984 169.292C197.53 178.366 177.563 184.266 159.114 183.842L178.265 205.22L190.982 197.869C191.85 197.367 192.883 197.23 193.851 197.491C194.82 197.75 195.646 198.385 196.148 199.255C196.649 200.124 196.785 201.158 196.525 202.128C196.51 202.185 196.494 202.241 196.476 202.297C197.253 204.142 196.688 205.602 195.757 206.19L194.746 204.437L179.266 213.385C179.196 213.425 179.126 213.464 179.053 213.499L175.014 220.504L177.181 221.758C177.086 221.907 176.973 222.043 176.844 222.164C176.731 222.27 176.607 222.363 176.476 222.444C176.361 222.515 176.24 222.576 176.116 222.627C176.006 222.672 175.894 222.71 175.78 222.741C175.33 222.861 174.857 222.87 174.399 222.799C174.106 222.754 173.819 222.676 173.539 222.575L173.531 222.572C172.402 223.47 170.794 223.638 169.47 222.872C169.469 222.872 169.469 222.872 169.469 222.872C167.738 221.872 167.145 219.656 168.144 217.923L172.51 210.352L97.69 151.754V151.754Z"
        fill="white" />
    <path fill-rule="evenodd" clip-rule="evenodd"
        d="M206.521 196.236L215.719 190.919C217.421 189.935 219.598 190.519 220.58 192.223C220.58 192.223 220.58 192.223 220.581 192.224C221.071 193.073 221.171 194.041 220.938 194.92C221.757 196.699 221.32 198.063 220.514 198.577L219.555 196.913C219.466 196.976 219.374 197.036 219.278 197.091C215.803 199.1 210.186 202.347 206.711 204.356C206.562 204.442 206.409 204.516 206.254 204.578L202.982 210.898L204.923 212.134C204.843 212.274 204.742 212.402 204.626 212.513C204.531 212.604 204.424 212.683 204.311 212.752C204.225 212.803 204.134 212.848 204.042 212.885C203.972 212.913 203.901 212.938 203.829 212.958C203.288 213.112 202.707 213.052 202.177 212.887C202.085 212.858 201.995 212.826 201.906 212.792C201.774 212.741 201.644 212.683 201.517 212.621L201.509 212.617C201.23 212.786 200.926 212.917 200.605 213.003C199.651 213.26 198.634 213.104 197.801 212.573L197.801 212.573C196.46 211.719 195.993 209.981 196.724 208.568C197.852 206.391 199.497 203.212 200.747 200.798C200.825 200.647 200.914 200.502 201.012 200.365L177.347 181.831C179.488 182.059 181.662 182.175 183.862 182.175C187.065 182.175 190.21 181.928 193.277 181.452L206.521 196.236V196.236Z"
        fill="white" />
</svg>