<svg viewBox="0 0 940 256" fill="none" xmlns="http://www.w3.org/2000/svg">
    <g clip-path="url(#clip0_2369_127)">
        <path
            d="M593.914 99.8875C589.051 99.7972 584.247 100.959 579.963 103.262C575.755 105.603 572.255 109.033 569.829 113.193V103.716C569.829 103.213 569.73 102.715 569.538 102.251C569.346 101.786 569.064 101.364 568.708 101.009C568.353 100.653 567.931 100.371 567.466 100.179C567.002 99.9865 566.504 99.8875 566.001 99.8875H553.349C552.846 99.8875 552.348 99.9865 551.884 100.179C551.419 100.371 550.997 100.653 550.642 101.009C550.286 101.364 550.004 101.786 549.812 102.251C549.619 102.715 549.52 103.213 549.52 103.716V191.92C549.52 192.935 549.924 193.909 550.642 194.627C551.36 195.345 552.333 195.748 553.349 195.748H567.69C568.705 195.748 569.679 195.345 570.397 194.627C571.115 193.909 571.519 192.935 571.519 191.92V145.903C571.519 132.019 576.709 123.987 585.855 120.856C588.525 119.985 591.326 119.58 594.135 119.661H597.433C597.936 119.661 598.433 119.562 598.898 119.369C599.362 119.177 599.784 118.895 600.14 118.539C600.496 118.184 600.778 117.762 600.97 117.297C601.162 116.833 601.261 116.335 601.261 115.832V103.716C601.261 103.213 601.162 102.715 600.97 102.251C600.778 101.786 600.496 101.364 600.14 101.009C599.784 100.653 599.362 100.371 598.898 100.179C598.433 99.9865 597.936 99.8875 597.433 99.8875H593.914Z"
            fill="#AC238F" />
        <path
            d="M399.123 159.919C399.123 127.956 325.78 153.084 325.78 100.616C325.78 79.741 343.516 61.8186 372.706 61.8186C401.85 61.8186 417.97 78.6331 420.132 101.207C420.188 101.711 420.138 102.222 419.985 102.705C419.831 103.188 419.578 103.634 419.242 104.014C418.905 104.393 418.493 104.698 418.032 104.908C417.57 105.119 417.07 105.23 416.562 105.235H401.708C400.855 105.246 400.027 104.946 399.378 104.392C398.729 103.837 398.304 103.066 398.182 102.221C396.776 90.7337 388.188 81.9576 372.706 81.9576C357.373 81.9576 347.951 88.4226 347.951 100.061C347.951 128.882 421.847 106.526 421.847 158.994C421.847 182.826 401.157 198.346 369.749 198.346C337.024 198.346 323.123 178.87 320.9 158.781C320.841 158.275 320.89 157.763 321.042 157.278C321.195 156.792 321.448 156.344 321.786 155.963C322.123 155.582 322.538 155.277 323.001 155.067C323.465 154.857 323.968 154.748 324.476 154.745H339.593C340.429 154.737 341.24 155.026 341.883 155.56C342.526 156.095 342.958 156.84 343.103 157.663C345.08 170.075 354.382 178.207 370.858 178.207C388.778 178.207 399.123 171.742 399.123 159.919Z"
            fill="#AC238F" />
        <path
            d="M459.579 154.19C461.241 169.341 471.033 179.133 486.366 179.133C495.688 179.133 503.764 174.779 507.745 167.501C508.05 166.901 508.511 166.394 509.08 166.035C509.65 165.676 510.306 165.479 510.978 165.463H525.748C526.341 165.462 526.924 165.608 527.448 165.888C527.971 166.167 528.417 166.571 528.746 167.064C529.076 167.557 529.278 168.124 529.336 168.714C529.394 169.304 529.305 169.9 529.078 170.447C522.067 186.804 506.16 197.976 485.813 197.976C456.807 197.976 437.963 176.361 437.963 147.725C437.963 119.83 457.177 97.6594 485.628 97.6594C514.078 97.6594 532.737 119.275 532.737 147.355C532.737 148.534 532.716 149.691 532.688 150.709C532.663 151.642 532.274 152.529 531.604 153.179C530.934 153.83 530.037 154.192 529.103 154.19H459.579ZM459.947 137.933H510.936C509.09 124.633 499.853 115.582 485.628 115.582C471.403 115.582 462.166 124.818 459.947 137.933Z"
            fill="#AC238F" />
        <path
            d="M688.014 129.992H687.829L666.843 193.302C666.606 194.017 666.15 194.64 665.539 195.081C664.928 195.522 664.194 195.76 663.44 195.76H647.7C646.956 195.76 646.23 195.528 645.624 195.097C645.017 194.666 644.56 194.057 644.314 193.355L613.377 104.642C613.188 104.102 613.132 103.524 613.212 102.958C613.293 102.391 613.508 101.852 613.839 101.385C614.171 100.919 614.609 100.538 615.117 100.276C615.626 100.013 616.19 99.8762 616.762 99.8762H631.801C632.565 99.8762 633.31 100.121 633.925 100.573C634.541 101.026 634.996 101.664 635.224 102.394L655.869 168.601L677.055 102.369C677.286 101.645 677.742 101.014 678.356 100.566C678.97 100.118 679.71 99.8762 680.47 99.8762H695.548C696.31 99.8762 697.052 100.119 697.667 100.569C698.281 101.019 698.737 101.654 698.967 102.38L719.975 168.786L740.8 102.389C741.029 101.66 741.484 101.024 742.099 100.572C742.714 100.12 743.458 99.8762 744.221 99.8762H758.895C759.467 99.8762 760.031 100.013 760.539 100.276C761.048 100.538 761.486 100.919 761.817 101.385C762.149 101.852 762.364 102.391 762.444 102.958C762.525 103.524 762.468 104.102 762.28 104.642L731.344 193.355C731.099 194.058 730.641 194.667 730.035 195.097C729.428 195.528 728.702 195.76 727.958 195.76H712.224C711.468 195.76 710.733 195.521 710.121 195.079C709.509 194.636 709.053 194.011 708.817 193.294L688.014 129.992Z"
            fill="#AC238F" />
        <path
            d="M788.022 154.19C789.684 169.341 799.475 179.133 814.809 179.133C824.131 179.133 832.207 174.779 836.188 167.501C836.492 166.901 836.954 166.394 837.523 166.035C838.093 165.676 838.749 165.479 839.421 165.463H854.19C854.783 165.462 855.367 165.608 855.891 165.888C856.414 166.167 856.86 166.571 857.189 167.064C857.518 167.557 857.721 168.124 857.779 168.714C857.837 169.304 857.748 169.9 857.52 170.447C850.51 186.804 834.603 197.976 814.255 197.976C785.25 197.976 766.406 176.361 766.406 147.725C766.406 119.83 785.62 97.6594 814.07 97.6594C842.521 97.6594 861.179 119.275 861.179 147.355C861.179 148.534 861.159 149.691 861.131 150.709C861.106 151.642 860.717 152.529 860.047 153.179C859.377 153.83 858.48 154.192 857.546 154.19H788.022ZM788.39 137.933H839.379C837.533 124.633 828.296 115.582 814.071 115.582C799.846 115.582 790.609 124.818 788.39 137.933Z"
            fill="#AC238F" />
        <path
            d="M877.879 192.174V60.7857C877.879 59.8348 878.257 58.9228 878.93 58.2504C879.602 57.578 880.514 57.2002 881.465 57.2002H896.278C897.229 57.2002 898.14 57.578 898.813 58.2504C899.485 58.9228 899.863 59.8348 899.863 60.7857V192.174C899.863 193.125 899.485 194.037 898.813 194.709C898.14 195.382 897.229 195.76 896.278 195.76H881.465C880.514 195.76 879.602 195.382 878.93 194.709C878.257 194.037 877.879 193.125 877.879 192.174Z"
            fill="#AC238F" />
        <path
            d="M917.844 192.174V60.7857C917.844 60.3149 917.937 59.8486 918.117 59.4136C918.297 58.9786 918.561 58.5833 918.894 58.2504C919.227 57.9174 919.622 57.6533 920.057 57.4731C920.492 57.293 920.958 57.2002 921.429 57.2002H936.24C937.191 57.2002 938.103 57.578 938.775 58.2504C939.448 58.9228 939.825 59.8348 939.825 60.7857V192.174C939.825 193.125 939.448 194.037 938.775 194.709C938.103 195.382 937.191 195.76 936.24 195.76H921.429C920.478 195.76 919.566 195.382 918.894 194.709C918.222 194.037 917.844 193.125 917.844 192.174Z"
            fill="#AC238F" />
        <path
            d="M190.018 0H65.5288C29.3382 0 0 29.3382 0 65.5288V190.018C0 226.209 29.3382 255.547 65.5288 255.547H190.018C226.209 255.547 255.547 226.209 255.547 190.018V65.5288C255.547 29.3382 226.209 0 190.018 0Z"
            fill="#AC238F" />
        <path
            d="M196.189 78.971C185.157 65.3817 168.473 57.2198 151.621 53.5494C142.653 51.6176 133.491 50.7297 124.318 50.9034C114.229 50.9925 104.206 52.5318 94.555 55.4741C77.248 60.9373 61.4723 72.0069 52.3336 87.9327C47.8302 95.7105 45.2583 104.455 44.8336 113.433C44.4526 122.366 46.3509 131.249 50.3498 139.247C52.3414 143.186 54.9022 146.81 57.9497 150.002C59.3661 151.489 60.9192 152.837 62.3546 154.305C62.6941 154.652 63.0278 155.005 63.3498 155.368C63.5033 155.542 63.6499 155.722 63.8011 155.897C64.045 156.26 64.2935 156.617 64.5117 156.997C64.6243 157.194 64.7239 157.396 64.83 157.595L64.831 157.599C64.8829 157.799 64.9578 157.994 65.011 158.193L65.0861 158.497L65.0998 158.567C65.1063 158.677 65.1187 158.786 65.1211 158.895C65.1271 159.147 65.1111 159.397 65.1079 159.649C65.1066 159.768 65.1066 159.855 65.1079 159.918C65.0479 160.148 64.9666 160.383 64.9294 160.528C64.7694 161.151 64.5557 161.754 64.3394 162.359C64.3094 162.443 64.2906 162.497 64.2716 162.551C64.1609 162.8 64.0376 163.046 63.9242 163.285C63.7017 163.753 63.4696 164.216 63.236 164.679C62.6083 165.923 61.972 167.162 61.3397 168.404C58.8527 173.288 56.3656 178.171 53.8784 183.055C51.5188 187.689 49.1592 192.322 46.7996 196.955C46.3555 197.742 46.1221 198.631 46.1221 199.534C46.1221 200.438 46.3555 201.326 46.7996 202.113C47.2431 202.89 47.8858 203.534 48.6615 203.979C49.4371 204.424 50.3175 204.653 51.2116 204.644C68.2952 202.924 84.9479 198.237 100.421 190.794C102.836 189.633 103.666 185.994 102.254 183.803C101.546 182.66 100.426 181.831 99.1246 181.49C97.8235 181.149 96.441 181.321 95.2629 181.97C93.3898 182.871 91.4967 183.725 89.5905 184.553L89.5395 184.575C89.3649 184.647 89.1902 184.72 89.0153 184.792C88.6553 184.94 88.2945 185.087 87.9329 185.232C86.969 185.62 86.0009 185.996 85.0286 186.362C81.3219 187.757 77.5602 188.993 73.7434 190.069C69.9315 191.144 66.0785 192.056 62.1844 192.805C61.5169 192.934 60.8475 193.051 60.1782 193.169L69.9727 173.936C72.3778 169.213 75.6854 164.035 75.3245 158.516C74.9782 153.218 71.8835 149.24 68.1826 145.703C66.7469 144.331 65.3002 142.978 63.9956 141.478C63.7156 141.156 63.4436 140.828 63.1746 140.497C63.1798 140.513 63.1846 140.523 63.1901 140.54C63.1793 140.515 63.1664 140.492 63.1515 140.469C63.1272 140.439 63.1015 140.411 63.0771 140.381C63.0314 140.324 62.9899 140.265 62.9528 140.203C62.8923 140.132 62.8356 140.067 62.8097 140.032C62.1831 139.18 61.5907 138.305 61.0326 137.407C60.0287 135.789 59.1349 134.105 58.3574 132.367C58.3357 132.319 58.2497 132.117 58.183 131.961L58.1306 131.831C57.9739 131.437 57.8229 131.041 57.6776 130.642C57.3135 129.644 56.9846 128.634 56.6909 127.612C56.1463 125.716 55.7202 123.787 55.4153 121.838C55.3862 121.652 55.3673 121.454 55.3364 121.263C55.29 120.846 55.243 120.43 55.2054 120.013C55.1141 119 55.0541 117.984 55.0254 116.967C54.9685 114.931 55.0376 112.894 55.2322 110.867C55.2696 110.478 55.3161 110.091 55.3596 109.703C55.3938 109.482 55.4258 109.261 55.4618 109.04C55.6252 108.037 55.8204 107.04 56.0474 106.049C56.4927 104.114 57.0557 102.208 57.7333 100.341C57.9165 99.8345 58.1076 99.3312 58.3065 98.8312L58.3232 98.7897C58.3485 98.7151 58.38 98.6297 58.4101 98.5614C58.427 98.5229 58.445 98.4849 58.462 98.4464C58.4912 98.3751 58.5234 98.3045 58.5485 98.2326C58.5336 98.2753 58.5248 98.2996 58.5113 98.3379C58.9137 97.4299 59.3312 96.5293 59.7798 95.6428C60.6791 93.8689 61.6718 92.1439 62.7537 90.4751C63.2804 89.6618 63.8271 88.8621 64.3937 88.0761C64.6463 87.7253 64.9052 87.3792 65.1638 87.0331C65.3317 86.8299 65.4912 86.6151 65.6555 86.4121C68.2158 83.258 71.0677 80.3524 74.1736 77.7339C74.3626 77.5739 75.6368 76.6922 76.1237 76.2368C75.9106 76.4001 75.67 76.4916 76.1953 76.0968C76.2338 76.0679 76.2729 76.0395 76.3115 76.0107C76.3126 76.0055 76.324 75.9945 76.3236 75.9907C76.3236 75.9952 76.3182 76.0016 76.3177 76.0065C76.4945 75.8743 76.6716 75.7428 76.8492 75.6119C77.2872 75.2908 77.7288 74.975 78.1742 74.6645C79.8651 73.4855 81.6062 72.3833 83.3976 71.3579C85.2138 70.3179 87.0736 69.3602 88.9771 68.4847C89.4966 68.2447 90.0206 68.0147 90.5439 67.7838C90.5394 67.7838 90.5288 67.7867 90.5273 67.7845C90.5491 67.7794 90.5704 67.7721 90.5908 67.7628C90.6285 67.7461 90.6659 67.729 90.7036 67.7128C90.9367 67.6096 90.9991 67.5879 90.9878 67.599C91.0987 67.5521 91.1954 67.511 91.2267 67.4983C92.3944 67.026 93.5728 66.5815 94.762 66.1648C99.1715 64.6286 103.695 63.4413 108.29 62.6139C109.41 62.4098 110.534 62.2253 111.66 62.0602L111.832 62.0351C111.958 62.0193 112.512 61.9431 112.561 61.937C113.189 61.859 113.819 61.7868 114.449 61.7202C116.781 61.4736 119.12 61.3024 121.466 61.207C126.03 61.0169 130.6 61.0889 135.156 61.4224C137.184 61.5711 139.203 61.7887 141.222 62.0324C141.384 62.0553 141.546 62.078 141.708 62.1015C142.201 62.1734 142.694 62.2487 143.187 62.3274C144.227 62.4935 145.264 62.675 146.298 62.8721C150.376 63.6431 154.399 64.6744 158.345 65.9597C160.277 66.5926 162.186 67.2918 164.072 68.0575C164.075 68.0587 164.152 68.0967 164.25 68.1428C164.341 68.1704 164.431 68.2038 164.517 68.2428C164.565 68.2635 164.612 68.2854 164.66 68.3062L164.68 68.3083L164.668 68.3097C165.069 68.4842 165.469 68.6616 165.867 68.8416C166.86 69.2934 167.844 69.7658 168.817 70.2587C172.403 72.0658 175.828 74.1759 179.055 76.5659C179.192 76.6684 179.329 76.7723 179.466 76.8759C179.835 77.1739 180.208 77.467 180.574 77.7691C181.367 78.4241 182.144 79.0984 182.904 79.7918C184.391 81.1474 185.808 82.5769 187.151 84.0748C187.809 84.8087 188.447 85.5591 189.067 86.3258C189.194 86.4835 189.319 86.6427 189.445 86.8016L189.478 86.8478C189.8 87.2906 190.128 87.7278 190.443 88.1756C191.607 89.8297 192.683 91.5444 193.665 93.3127C194.143 94.1727 194.599 95.044 195.032 95.9267C195.249 96.368 195.461 96.812 195.667 97.2587C195.756 97.4505 195.885 97.9096 196.033 98.2729C196.037 98.1915 196.111 98.2285 196.26 98.5962C196.28 98.645 196.299 98.6941 196.318 98.7429C196.323 98.7463 196.328 98.7543 196.333 98.7571L196.32 98.7461C196.402 98.9498 196.484 99.1536 196.563 99.3582C196.722 99.7659 196.877 100.175 197.027 100.586C197.403 101.614 197.751 102.651 198.071 103.698C198.664 105.636 199.16 107.6 199.562 109.589C199.757 110.556 199.929 111.527 200.078 112.502C200.11 112.712 200.123 112.957 200.17 113.173C200.225 113.639 200.279 114.103 200.325 114.57C200.724 118.663 200.717 122.786 200.303 126.879C200.253 127.368 200.176 127.858 200.136 128.348C200.263 126.808 200.151 128.22 200.09 128.616C199.924 129.698 199.727 130.775 199.501 131.847C199.072 133.884 198.533 135.896 197.888 137.875C197.586 138.802 197.259 139.722 196.909 140.633C196.787 140.951 196.659 141.267 196.532 141.583C196.417 141.812 196.328 142.066 196.225 142.296C195.418 144.098 194.522 145.858 193.537 147.574C192.581 149.241 191.547 150.861 190.436 152.434C190.166 152.816 189.892 153.195 189.613 153.571C189.51 153.711 189.404 153.85 189.3 153.99C188.707 154.733 188.111 155.472 187.491 156.192C184.939 159.151 182.124 161.873 179.082 164.325C178.8 164.553 177.514 165.485 178.764 164.588C178.384 164.861 178.016 165.154 177.637 165.43C176.838 166.014 176.026 166.58 175.2 167.127C173.55 168.221 171.853 169.238 170.107 170.178C169.282 170.622 168.447 171.048 167.603 171.456C167.228 171.637 166.851 171.815 166.472 171.988C166.235 172.097 165.998 172.204 165.76 172.31C165.603 172.38 164.62 172.784 165.313 172.508C165.221 172.545 165.141 172.577 165.112 172.589C164.919 172.667 164.726 172.744 164.532 172.821C164.096 172.992 163.659 173.159 163.219 173.321C162.291 173.663 161.355 173.983 160.411 174.28C158.523 174.874 156.609 175.374 154.67 175.782C153.706 175.983 152.737 176.161 151.764 176.314C151.648 176.332 151.533 176.349 151.417 176.366C150.842 176.401 150.269 176.469 149.702 176.569C145.608 176.972 141.485 176.965 137.394 176.547C136.967 176.504 136.542 176.451 136.116 176.404C135.908 176.374 135.7 176.344 135.492 176.311C134.518 176.16 133.548 175.985 132.582 175.787C130.545 175.371 128.53 174.852 126.546 174.231C125.608 173.938 124.678 173.621 123.755 173.282C123.294 173.112 122.835 172.937 122.378 172.756C122.15 172.666 121.922 172.572 121.694 172.48L121.636 172.453C119.849 171.64 118.088 170.792 116.378 169.825C114.578 168.807 112.837 167.689 111.162 166.477C110.986 166.349 110.81 166.22 110.635 166.09L110.388 165.905C110.298 165.834 110.208 165.764 110.119 165.692C109.949 165.556 109.779 165.419 109.611 165.28C108.811 164.623 108.031 163.942 107.271 163.237C105.812 161.887 104.435 160.451 103.147 158.937C102.824 158.557 102.512 158.168 102.197 157.781C102.243 157.845 102.285 157.901 102.344 157.984C102.264 157.873 102.18 157.765 102.096 157.656C102.064 157.615 102.031 157.571 101.999 157.528L101.959 157.475C101.323 156.621 100.714 155.749 100.131 154.857C99.0538 153.207 98.0699 151.498 97.1841 149.737C96.7782 148.931 96.3969 148.113 96.0322 147.287L96.0374 147.326C96.0332 147.305 96.0276 147.284 96.0209 147.263C96.0017 147.22 95.9794 147.178 95.9609 147.135C95.9322 147.069 95.9085 147.002 95.8899 146.933C95.8522 146.854 95.8163 146.781 95.7974 146.734C95.6 146.239 95.4099 145.741 95.2273 145.241C94.5334 143.341 93.9474 141.403 93.4719 139.437C93.2473 138.507 93.0478 137.571 92.8734 136.63C92.7961 136.212 92.7239 135.794 92.6567 135.374C92.6215 135.155 92.59 134.935 92.5568 134.715L92.5529 134.683C92.1027 130.777 92.093 126.833 92.524 122.925C92.5088 123.017 92.4941 123.105 92.4741 123.227C92.4964 123.096 92.514 122.963 92.5321 122.831L92.5338 122.81C92.5493 122.665 92.5857 122.461 92.6002 122.402C92.6723 121.947 92.7483 121.492 92.8339 121.039C92.9585 120.38 93.1122 119.726 93.2656 119.073C110.633 127.898 130.681 129.877 149.438 124.618C152.851 123.651 156.19 122.439 159.428 120.991C159.427 121.508 159.416 122.024 159.395 122.541C159.353 123.556 159.141 124.599 159.137 125.611C159.112 125.771 159.087 125.931 159.06 126.091C158.982 126.555 158.895 127.017 158.8 127.478C158.585 128.514 158.329 129.541 158.032 130.558C157.751 131.517 157.434 132.464 157.081 133.4C156.998 133.62 156.913 133.839 156.826 134.057C156.756 134.234 156.423 134.931 156.746 134.262C157.12 133.488 156.615 134.538 156.577 134.619C156.455 134.887 156.329 135.152 156.2 135.416C155.304 137.26 154.256 139.028 153.069 140.7C152.941 140.88 152.81 141.056 152.681 141.235C152.51 141.472 152.522 141.51 152.589 141.459C152.394 141.674 152.156 141.889 152.048 142.017C151.41 142.775 150.744 143.508 150.048 144.215C149.391 144.881 148.711 145.524 148.007 146.142C147.676 146.432 147.34 146.717 146.999 146.996C146.876 147.096 146.752 147.195 146.629 147.294C146.575 147.334 146.522 147.375 146.468 147.414C144.916 148.559 143.281 149.589 141.578 150.494C140.716 150.953 139.834 151.365 138.945 151.765C138.725 151.85 138.507 151.939 138.286 152.023C137.771 152.217 137.252 152.401 136.73 152.573C134.636 153.26 132.487 153.765 130.306 154.083C129.02 154.437 127.924 155.28 127.252 156.432C126.913 157.011 126.692 157.651 126.601 158.316C126.509 158.981 126.55 159.658 126.72 160.307C126.891 160.956 127.187 161.565 127.593 162.1C127.999 162.635 128.506 163.084 129.085 163.423C130.3 164.039 131.69 164.221 133.023 163.938C141.961 162.498 150.227 158.306 156.67 151.947C163.114 145.588 167.414 137.378 168.972 128.459C169.897 122.907 169.786 117.231 168.645 111.719C167.962 108.446 163.843 107.096 161.139 108.666C158.972 109.926 156.737 111.064 154.444 112.074L154.291 112.141C153.783 112.36 153.883 112.319 154.591 112.019C154.303 112.192 153.991 112.32 153.665 112.399C153.149 112.606 152.63 112.807 152.109 113.002C150.911 113.449 149.701 113.862 148.479 114.242C146.088 114.985 143.66 115.6 141.203 116.085C140.111 116.301 139.015 116.492 137.913 116.657L137.897 116.659L137.948 116.66C137.67 116.675 137.393 116.709 137.12 116.764C136.401 116.85 135.681 116.925 134.96 116.99C130.071 117.426 125.152 117.373 120.274 116.832C120.053 116.807 119.832 116.781 119.611 116.754L119.643 116.766C119.627 116.76 119.608 116.758 119.593 116.752C119.543 116.746 119.494 116.741 119.444 116.735C119.306 116.719 119.171 116.682 119.043 116.626C118.633 116.567 118.193 116.55 117.826 116.49C116.562 116.282 115.305 116.04 114.053 115.766C111.662 115.241 109.299 114.593 106.974 113.825C105.707 113.405 104.453 112.95 103.211 112.459C102.942 112.352 102.675 112.242 102.407 112.133C102.261 112.07 102.116 112.007 101.97 111.943C101.36 111.673 100.754 111.395 100.152 111.107C97.6404 109.904 95.2064 108.546 92.8635 107.042C92.1819 106.636 91.4128 106.401 90.6211 106.357C89.8295 106.312 89.0387 106.458 88.3158 106.784C87.6127 107.089 86.984 107.543 86.4733 108.115C85.9625 108.687 85.5818 109.362 85.3574 110.095C78.9974 126.289 81.8823 145.599 91.3081 160.016C96.2434 167.541 102.867 173.81 110.653 178.324C122.045 184.814 135.102 187.792 148.182 186.884C161.262 185.977 173.783 181.223 184.17 173.222C197.934 162.67 207.773 147.366 210.13 130.031C211.413 121.019 210.839 111.84 208.441 103.059C206.044 94.2778 201.874 86.0802 196.189 78.971ZM65.1573 159.696C65.1604 159.647 65.1628 159.6 65.1646 159.558C65.1655 159.604 65.163 159.65 65.1573 159.696ZM55.3087 121.11C55.3039 121.09 55.3031 121.067 55.2975 121.047C55.3001 121.056 55.3041 121.08 55.3087 121.11ZM65.3458 86.7896C65.4559 86.6433 65.5088 86.5724 65.3458 86.7896V86.7896ZM200.144 112.935C200.15 112.992 200.156 113.049 200.163 113.107C200.118 112.777 200.063 112.249 200.144 112.935ZM200.179 113.22C200.187 113.25 200.187 113.286 200.197 113.315C200.189 113.283 200.183 113.252 200.179 113.22ZM159.175 125.366C159.219 125.077 159.267 124.804 159.175 125.366V125.366ZM151.259 176.39L151.114 176.412C150.453 176.513 150.929 176.435 151.259 176.39ZM196.461 141.761L196.448 141.794C196.237 142.318 196.346 142.039 196.461 141.761Z"
            fill="white" />
    </g>
    <defs>
        <clipPath id="clip0_2369_127">
            <rect width="939.825" height="255.547" fill="white" />
        </clipPath>
    </defs>
</svg>